<svg xmlns="http://www.w3.org/2000/svg" xmlns:xlink="http://www.w3.org/1999/xlink" viewBox="0 0 359.28 315.86">
  <defs>
    <style>
      .a {
        fill: url(#a);
      }

      .b {
        fill: url(#b);
      }

      .c {
        fill: url(#c);
      }

      .d {
        fill: url(#d);
      }

      .e {
        fill: url(#e);
      }
    </style>
    <linearGradient id="a" x1="-76.24" y1="353.54" x2="-76.16" y2="353.54" gradientTransform="translate(117368.59 -203772.41) scale(1538 576.75)" gradientUnits="userSpaceOnUse">
      <stop offset="0" stop-color="#4f4f4f"/>
      <stop offset="1"/>
    </linearGradient>
    <linearGradient id="b" x1="-76.24" y1="354.76" x2="-76.16" y2="354.76" gradientTransform="translate(117368.59 -204541.41) scale(1538 576.75)" xlink:href="#a"/>
    <linearGradient id="c" x1="-76.24" y1="354.84" x2="-76.16" y2="354.84" gradientTransform="translate(117368.59 -340990.84) scale(1538 961.25)" gradientUnits="userSpaceOnUse">
      <stop offset="0" stop-color="#c40000"/>
      <stop offset="1" stop-color="red"/>
    </linearGradient>
    <linearGradient id="d" x1="-76.24" y1="355.58" x2="-76.16" y2="355.58" gradientTransform="translate(117368.59 -341759.84) scale(1538 961.25)" xlink:href="#c"/>
    <linearGradient id="e" x1="-76.24" y1="354.1" x2="-76.16" y2="354.1" gradientTransform="translate(117368.59 -340221.84) scale(1538 961.25)" xlink:href="#c"/>
  </defs>
  <title>technology-icon-scala2</title>
  <g>
    <path class="a" d="M118.1,123.08v15.38c0,2.59,56,6.94,92.4,15.39,17.61-4.09,30.68-9.12,30.68-15.39V123.08c0-6.26-13.07-11.31-30.68-15.39-36.45,8.45-92.4,12.8-92.4,15.39"/>
    <path class="b" d="M118.1,61.54V76.92c0,2.6,56,6.94,92.4,15.39,17.61-4.08,30.68-9.12,30.68-15.39V61.54c0-6.26-13.07-11.3-30.68-15.39C174.05,54.6,118.1,59,118.1,61.54"/>
    <path class="c" d="M118.1,92.31v46.15c0-3.84,123.08-11.54,123.08-30.77V61.54c0,19.23-123.08,26.92-123.08,30.77"/>
    <path class="d" d="M118.1,30.77V76.92c0-3.84,123.08-11.54,123.08-30.77V0c0,19.23-123.08,26.92-123.08,30.77"/>
    <path class="e" d="M118.1,153.85V200c0-3.85,123.08-11.54,123.08-30.77V123.08c0,19.23-123.08,26.92-123.08,30.77"/>
  </g>
  <g>
    <path d="M14,283.16c5.35,10.55,14,15.75,26,15.75,12.93,0,17.54-6.84,17.54-13.53,0-4.6-1.64-7.72-6-10.55s-7.43-4.31-15.16-7.13c-9.51-3.57-15-6.25-21-11-6-4.91-8.77-11.6-8.77-20.37a25.31,25.31,0,0,1,9.22-20.21c6.24-5.21,13.82-7.73,22.89-7.73,14.12,0,24.82,5.64,32,16.79l-13.23,9.07c-4-6.09-10.11-9.22-18.44-9.22C30.92,225,25,229.64,25,236c0,4.31,1.79,6.4,4.31,8.92,1.64,1.19,5.8,3,7.73,4l5.35,2.08,6.1,2.38c9.81,4,16.8,8.32,21.11,12.93s6.54,10.85,6.54,18.58c0,18.28-12.64,30.62-36.27,30.62-19.18,0-33.3-8.92-39.84-23.63Z"/>
    <path d="M156.67,249.41l-11,11.45a25.19,25.19,0,0,0-19-8.18,22.42,22.42,0,0,0-16.5,6.69,24.85,24.85,0,0,0,0,33.6,22.41,22.41,0,0,0,16.5,6.68,25.18,25.18,0,0,0,19-8.17l11,11.45c-8,8.62-18,12.93-30,12.93-11.45,0-21.11-3.72-29-11.3s-11.74-17.09-11.74-28.39,3.86-20.66,11.74-28.24,17.54-11.45,29-11.45C138.69,236.48,148.65,240.79,156.67,249.41Z"/>
    <path d="M196.81,268.14c12.63-1.19,17.09-2.82,17.09-8.62,0-4.61-4.16-8.18-12.49-8.18q-12,0-20.06,9.82l-11-9.37c7.28-10.26,17.54-15.31,30.77-15.31,18.58,0,30.17,8.92,30.17,24.23v33.15c0,5.2,1.93,5.79,6.24,5.79H238v13.83c-1.78,1-4.61,1.63-8.32,1.63-4,0-7.14-1.18-9.52-3.56a12.49,12.49,0,0,1-2.67-4.91c-5.21,6.1-13.68,9.22-25.42,9.22-16.5,0-27.65-9.07-27.65-22.75C164.4,277.8,174.66,270.07,196.81,268.14Zm-2.09,32.56c11.9,0,19.18-5.36,19.18-14.87v-8.32a8.85,8.85,0,0,1-3.72,2.23c-3.42,1.19-5.64,1.48-12.78,2.23-10.41,1.19-15.61,4.45-15.61,9.66C181.79,297.43,186.55,300.7,194.72,300.7Z"/>
    <path d="M247.05,210.17h17.83v79.08c0,7.28,2.38,10.4,8.92,10.4a18.81,18.81,0,0,0,5.35-.59V315a32.2,32.2,0,0,1-8.47.89c-15.76,0-23.63-8-23.63-24.23Z"/>
    <path d="M318.1,268.14c12.64-1.19,17.1-2.82,17.1-8.62,0-4.61-4.17-8.18-12.49-8.18q-12,0-20.07,9.82l-11-9.37c7.29-10.26,17.54-15.31,30.77-15.31,18.58,0,30.18,8.92,30.18,24.23v33.15c0,5.2,1.93,5.79,6.24,5.79h.45v13.83c-1.79,1-4.61,1.63-8.33,1.63-4,0-7.13-1.18-9.51-3.56a12.62,12.62,0,0,1-2.68-4.91c-5.2,6.1-13.67,9.22-25.42,9.22-16.5,0-27.64-9.07-27.64-22.75C285.7,277.8,296,270.07,318.1,268.14ZM316,300.7c11.89,0,19.18-5.36,19.18-14.87v-8.32a9,9,0,0,1-3.72,2.23c-3.42,1.19-5.65,1.48-12.78,2.23-10.41,1.19-15.61,4.45-15.61,9.66C303.09,297.43,307.84,300.7,316,300.7Z"/>
  </g>
</svg>
